<svg xmlns="http://www.w3.org/2000/svg" xmlns:xlink="http://www.w3.org/1999/xlink" width="179.931" height="29.668" viewBox="0 0 179.931 29.668">
  <defs>
    <linearGradient id="linear-gradient" x1="0.5" y1="1" x2="0.5" gradientUnits="objectBoundingBox">
      <stop offset="0" stop-color="#5a4bda"/>
      <stop offset="1" stop-color="#eb427e"/>
    </linearGradient>
  </defs>
  <g id="Group_20368" data-name="Group 20368" transform="translate(-0.001)">
    <path id="Union_9" data-name="Union 9" d="M177.135,2.129l.687.727c.735-.7,1.445-1.436,2.108-2.2L179.176,0C178.534.741,177.847,1.456,177.135,2.129Zm-4.656,3.614.534.846c.861-.547,1.7-1.135,2.494-1.75l-.613-.792C174.125,4.642,173.312,5.212,172.479,5.742Zm-5.25,2.711.383.924c.944-.391,1.873-.821,2.759-1.278l-.458-.889C169.052,7.654,168.149,8.073,167.229,8.453ZM161.605,10.3l.245.97c.992-.251,1.973-.534,2.914-.844l-.311-.95C163.534,9.781,162.576,10.061,161.605,10.3Zm-5.834,1.1.129.993c1.014-.134,2.021-.294,2.991-.476l-.185-.981C157.755,11.121,156.766,11.28,155.771,11.408Zm-5.93.481.035,1c1.019-.038,2.035-.094,3.016-.172l-.08-1C151.845,11.8,150.845,11.854,149.841,11.888Zm-5.981.043v1h3.01v-1Zm-6,0v1h3.008v-1Zm-5.262,0v1h2.99v-1Zm-6,0v1h2.99v-1Zm-6,0v1h2.991v-1Zm-6,0v1h2.994v-1Zm-6,0v1h3v-1Zm-6,0v1h3v-1Zm-6,0v1H99.6v-1Zm-6,0v1H93.6v-1Zm-5.987,0v1h2.986v-1Zm-6.012,0v1h3v-1Zm-6.005,0v1H75.6v-1Zm-5.986,0v1h2.985v-1Zm-6.015,0v1h3.012v-1Zm-6,0v1h3v-1Zm-6,0v1h3v-1Zm-6,0v1h3v-1Zm-6,0v1H39.6v-1Zm-6.009.216.08,1c.967-.078,1.967-.135,2.971-.171l-.034-1C32.565,12.011,31.55,12.068,30.568,12.147Zm-6,.79.187.983c.951-.177,1.939-.336,2.935-.465l-.129-.992C26.546,12.6,25.539,12.755,24.568,12.937Zm-5.873,1.494.313.952c.918-.3,1.876-.581,2.848-.824l-.246-.97C20.617,13.84,19.636,14.123,18.695,14.431Zm-5.607,2.332.459.889c.861-.444,1.764-.861,2.683-1.241l-.382-.924C14.9,15.878,13.974,16.307,13.088,16.763ZM7.953,20.026l.613.79c.769-.594,1.582-1.166,2.417-1.694l-.536-.846C9.585,18.823,8.748,19.41,7.953,20.026ZM3.529,24.208l.755.656c.644-.741,1.329-1.456,2.041-2.129l-.687-.727C4.9,22.7,4.193,23.444,3.529,24.208ZM0,29.166l.866.5c.495-.855,1.032-1.691,1.594-2.485L1.645,26.6C1.063,27.422.51,28.285,0,29.166Z" transform="translate(179.931 29.668) rotate(180)" fill="url(#linear-gradient)"/>
  </g>
</svg>
