<svg xmlns="http://www.w3.org/2000/svg" xmlns:xlink="http://www.w3.org/1999/xlink" width="179.932" height="29.668" viewBox="0 0 179.932 29.668">
  <defs>
    <linearGradient id="linear-gradient" x1="0.5" x2="0.5" y2="1" gradientUnits="objectBoundingBox">
      <stop offset="0" stop-color="#5a4bda"/>
      <stop offset="1" stop-color="#eb427e"/>
    </linearGradient>
  </defs>
  <g id="Group_20364" data-name="Group 20364" transform="translate(-8679.996 18529.379)">
    <path id="Union_9" data-name="Union 9" d="M-5960.4,1210.389l.687-.727c.735.7,1.445,1.436,2.108,2.2l-.754.656C-5959,1211.777-5959.692,1211.062-5960.4,1210.389Zm-4.656-3.614.534-.846c.861.547,1.7,1.135,2.494,1.75l-.613.792C-5963.413,1207.875-5964.227,1207.305-5965.06,1206.775Zm-5.25-2.711.383-.924c.944.391,1.873.821,2.759,1.278l-.458.889C-5968.487,1204.864-5969.39,1204.445-5970.309,1204.064Zm-5.624-1.851.245-.97c.992.251,1.973.534,2.914.844l-.311.95C-5974,1202.737-5974.962,1202.456-5975.933,1202.213Zm-5.834-1.1.129-.993c1.014.134,2.021.294,2.991.476l-.185.981C-5979.784,1201.4-5980.772,1201.238-5981.768,1201.11Zm-5.93-.481.035-1c1.019.038,2.035.094,3.016.172l-.08,1C-5985.694,1200.72-5986.693,1200.663-5987.7,1200.629Zm-5.981-.043v-1h3.01v1Zm-6,0v-1h3.008v1Zm-5.262,0v-1h2.99v1Zm-6,0v-1h2.99v1Zm-6,0v-1h2.991v1Zm-6,0v-1h2.994v1Zm-6,0v-1h3v1Zm-6,0v-1h3v1Zm-6,0v-1h3.015v1Zm-6,0v-1h3.01v1Zm-5.987,0v-1h2.986v1Zm-6.012,0v-1h3v1Zm-6.005,0v-1h3.016v1Zm-5.986,0v-1h2.985v1Zm-6.015,0v-1h3.012v1Zm-6,0v-1h3v1Zm-6,0v-1h3v1Zm-6,0v-1h3v1Zm-6,0v-1h3.025v1Zm-6.009-.216.08-1c.967.078,1.967.135,2.971.171l-.034,1C-6104.973,1200.506-6105.988,1200.449-6106.971,1200.371Zm-6-.79.187-.983c.951.177,1.939.336,2.935.465l-.129.992C-6110.993,1199.922-6112,1199.762-6112.971,1199.58Zm-5.873-1.494.313-.952c.918.3,1.876.581,2.848.824l-.246.97C-6116.921,1198.678-6117.9,1198.394-6118.844,1198.086Zm-5.607-2.332.459-.889c.861.444,1.764.861,2.683,1.241l-.382.924C-6122.636,1196.64-6123.565,1196.21-6124.451,1195.754Zm-5.135-3.262.613-.79c.769.594,1.582,1.166,2.417,1.694l-.536.846C-6127.953,1193.695-6128.791,1193.108-6129.586,1192.492Zm-4.424-4.182.755-.656c.644.741,1.329,1.456,2.041,2.129l-.687.727C-6132.636,1189.815-6133.346,1189.074-6134.01,1188.31Zm-3.529-4.958.866-.5c.495.855,1.032,1.691,1.594,2.485l-.815.581C-6136.476,1185.1-6137.029,1184.233-6137.539,1183.352Z" transform="translate(14817.535 -19712.229)" fill="url(#linear-gradient)"/>
  </g>
</svg>
